<svg id="Grupo_3838" data-name="Grupo 3838" xmlns="http://www.w3.org/2000/svg" width="378.735" height="80.902" viewBox="0 0 378.735 80.902">
  <path id="Caminho_2534" data-name="Caminho 2534" d="M233.922,68.714H84.5V15.037H233.922V68.714Z" transform="translate(-84.499 -15.037)" fill="#fff"/>
  <path id="Caminho_2535" data-name="Caminho 2535" d="M102.169,47.759h12l-5.974-17.975-6.026,17.975Zm-1.229,3.08-2.019,5.5a7.734,7.734,0,0,0-.353,2.137c0,2.171,1.329,3.282,4.006,3.366v1.919h-12V61.847c1.2-.034,2.423-1.582,3.7-4.628L107.387,22.6h3.77l13.212,34.621c1.28,3.046,2.525,4.594,3.72,4.628v1.919H113.244V61.847c2.861,0,4.292-1.128,4.292-3.366a8.325,8.325,0,0,0-.353-2.137l-1.8-5.5Zm55.1-28.241V33.5h-2.609q0-7.775-5.218-7.775h-4.292v32.82c0,2.171,1.414,3.264,4.241,3.3v1.919H133.658V61.847c2.828-.034,4.241-1.128,4.241-3.3V25.728h-4.291q-5.227,0-5.218,7.775h-2.609V22.6ZM197.5,43.418c0,6.211-1.565,11.226-4.695,15.012q-4.571,5.73-13.852,5.74-9.67,0-14.374-5.74c-3.147-3.786-4.713-8.8-4.713-15.012q0-9.7,4.646-15.485,4.7-5.731,13.852-5.739,9.82,0,14.508,5.739,4.619,5.782,4.628,15.485ZM178.949,61.628a9.564,9.564,0,0,0,8.583-4.763q3.055-4.823,3.063-13.448c-.118-5.723-1.263-10.2-3.468-13.448a10.236,10.236,0,0,0-8.768-4.88,9.514,9.514,0,0,0-8.517,4.762c-2.053,3.215-3.08,7.726-3.08,13.566.117,5.638,1.313,10.064,3.551,13.279q3.358,4.923,8.634,4.932ZM208.166,40.1a10.135,10.135,0,0,1-4.409-7.591,9.554,9.554,0,0,1,3.416-7.3q3.359-3,9.695-3.012a14.565,14.565,0,0,1,10.2,3.584v7.659H225.1c-.774-3.164-1.818-5.353-3.131-6.548a7.068,7.068,0,0,0-4.814-1.8c-2.407,0-4.141.606-5.218,1.8a6.378,6.378,0,0,0-1.683,4.46c.118,1.936,2.188,3.973,6.211,6.143a70.373,70.373,0,0,1,8.869,5.454,12.91,12.91,0,0,1,5.1,9.627,10.721,10.721,0,0,1-3.6,8.347q-3.711,3.258-10.957,3.249-8.458,0-12.808-4.814v-10.2h2.895q1.111,7.827,3.534,10.032a8.456,8.456,0,0,0,5.974,2.2c2.862,0,4.965-.606,6.329-1.8,1.263-1.128,1.936-3.013,2.019-5.688q-.277-4.872-6.664-8.4a87.53,87.53,0,0,1-8.988-5.4Z" transform="translate(-86.119 -16.947)" fill="#7e1416"/>
  <path id="Caminho_2536" data-name="Caminho 2536" d="M301.06,43.418q0,8.052,3.434,12.976,3.408,4.822,8.685,4.814c3.72-.034,6.648-1.111,8.819-3.248a12.479,12.479,0,0,0,3.82-6.262h1.751a16.788,16.788,0,0,1-4.7,8.533C320.4,62.773,316.7,64.086,311.8,64.17a16.865,16.865,0,0,1-12.943-5.386c-3.434-3.786-5.151-8.92-5.151-15.366q0-9.8,5.386-15.434a17.471,17.471,0,0,1,13.28-5.79c3.214,0,5.689.572,7.422,1.733a3.318,3.318,0,0,0,1.683.706c.724,0,1.094-.639,1.094-1.918h2.558V36.23h-2.49a18.972,18.972,0,0,0-2.778-8.247c-1.4-2-3.686-3.013-6.9-3.013-3.181,0-5.958,1.733-8.366,5.218q-3.534,5.1-3.534,13.229Zm38.912,4.342h12L346,29.785l-6.026,17.975Zm-1.228,3.08-2.02,5.5a7.732,7.732,0,0,0-.353,2.137c0,2.171,1.329,3.282,4,3.366v1.919h-12V61.847c1.2-.034,2.424-1.582,3.7-4.628L345.19,22.6h3.77l13.212,34.621c1.279,3.046,2.524,4.594,3.719,4.628v1.919H351.047V61.847c2.862,0,4.292-1.128,4.292-3.366a8.351,8.351,0,0,0-.353-2.137l-1.8-5.5Zm38.508-5.4V55.7c0,4.023,1.481,6.059,4.46,6.143v1.919H366.987V61.847c2.861-.084,4.292-1.178,4.292-3.3V27.815c0-2.121-1.431-3.215-4.292-3.3V22.6h13.8q16.94.05,16.931,11.428-.075,11.36-16.931,11.411Zm0-20.348V40.522c0,1.667.943,2.491,2.828,2.491h1.161q9.62-.353,9.627-8.987,0-8.71-9.627-8.937Zm32.922,33.459c0,2.121,1.5,3.215,4.476,3.3v1.919H399.924V61.847c2.862-.084,4.292-1.178,4.292-3.3V27.815c0-2.121-1.43-3.215-4.292-3.3V22.6h14.727v1.919c-2.979.084-4.476,1.178-4.476,3.3V58.548ZM447.521,22.6V33.5h-2.609q0-7.775-5.218-7.775H435.4v32.82c0,2.171,1.414,3.264,4.242,3.3v1.919H425.137V61.847c2.827-.034,4.241-1.128,4.241-3.3V25.728h-4.292q-5.227,0-5.218,7.775H417.26V22.6Zm12.185,25.161h12l-5.974-17.975-6.026,17.975Zm-1.228,3.08-2.02,5.5a7.735,7.735,0,0,0-.353,2.137c0,2.171,1.329,3.282,4,3.366v1.919h-12V61.847c1.2-.034,2.424-1.582,3.7-4.628L464.924,22.6h3.77l13.212,34.621c1.279,3.046,2.525,4.594,3.719,4.628v1.919H470.781V61.847c2.862,0,4.292-1.128,4.292-3.366a8.353,8.353,0,0,0-.353-2.137l-1.8-5.5Zm46.218,9.8q7.876,0,7.876-7.54h2.676V63.766H487.6V61.847c2.811-.034,4.225-1.128,4.225-3.3V27.815c0-2.171-1.414-3.265-4.225-3.3V22.6h14.727v1.919c-3.013.033-4.528,1.127-4.528,3.3V58.38c0,1.5,1.161,2.255,3.484,2.255Z" transform="translate(-140.307 -16.947)" fill="#fff"/>
  <path id="Caminho_2537" data-name="Caminho 2537" d="M518.474,87.115h-226.9V84.05h226.9v3.065Z" transform="translate(-139.739 -33.447)" fill="#fff"/>
  <path id="Caminho_2538" data-name="Caminho 2538" d="M193.051,113.345a3.106,3.106,0,0,1-1.2,2.538,3.94,3.94,0,0,1-1.329.668,5.8,5.8,0,0,1-1.649.224,6.311,6.311,0,0,1-1.143-.1,6.885,6.885,0,0,1-.942-.245,4.749,4.749,0,0,1-.694-.3,1.886,1.886,0,0,1-.389-.263.645.645,0,0,1-.162-.273,1.5,1.5,0,0,1-.051-.441,2.147,2.147,0,0,1,.02-.328.824.824,0,0,1,.054-.208.236.236,0,0,1,.1-.114.265.265,0,0,1,.133-.03.823.823,0,0,1,.375.152,5.461,5.461,0,0,0,.623.332,6.512,6.512,0,0,0,.916.334,4.436,4.436,0,0,0,1.238.157,3.361,3.361,0,0,0,.974-.136,2.26,2.26,0,0,0,.758-.38,1.632,1.632,0,0,0,.49-.6,1.9,1.9,0,0,0,.171-.816,1.462,1.462,0,0,0-.236-.844,2.35,2.35,0,0,0-.625-.617,6.008,6.008,0,0,0-.888-.485c-.334-.147-.674-.295-1.02-.448a11.077,11.077,0,0,1-1.014-.51,4.239,4.239,0,0,1-.885-.653,2.991,2.991,0,0,1-.627-.887,2.774,2.774,0,0,1-.244-1.215,2.929,2.929,0,0,1,.279-1.3,2.746,2.746,0,0,1,.777-.955,3.582,3.582,0,0,1,1.185-.589,5.213,5.213,0,0,1,1.483-.2,5.015,5.015,0,0,1,.82.067,5.816,5.816,0,0,1,.778.182,4.6,4.6,0,0,1,.651.251,1.732,1.732,0,0,1,.372.224.694.694,0,0,1,.12.135.529.529,0,0,1,.046.126,1.3,1.3,0,0,1,.029.187c.006.07.01.163.01.279a2.625,2.625,0,0,1-.013.288,1.076,1.076,0,0,1-.045.212.266.266,0,0,1-.078.126.189.189,0,0,1-.12.04.8.8,0,0,1-.327-.126c-.15-.086-.331-.177-.548-.285a4.836,4.836,0,0,0-.764-.284,3.383,3.383,0,0,0-.991-.133,2.778,2.778,0,0,0-.891.129,1.91,1.91,0,0,0-.628.347,1.432,1.432,0,0,0-.369.509,1.648,1.648,0,0,0-.123.629,1.45,1.45,0,0,0,.236.834,2.4,2.4,0,0,0,.632.62,5.7,5.7,0,0,0,.9.493c.334.15.678.3,1.027.455s.69.319,1.024.5a4.274,4.274,0,0,1,.9.647,2.927,2.927,0,0,1,.635.881,2.75,2.75,0,0,1,.243,1.2Zm11.359,2.623a1.888,1.888,0,0,1-.019.286.707.707,0,0,1-.065.2.315.315,0,0,1-.111.117.264.264,0,0,1-.139.037h-5.9a.706.706,0,0,1-.415-.138.569.569,0,0,1-.194-.491V105.6a.569.569,0,0,1,.194-.491.707.707,0,0,1,.415-.139h5.83a.269.269,0,0,1,.14.037.247.247,0,0,1,.1.117,1.1,1.1,0,0,1,.062.2,1.529,1.529,0,0,1,.023.3,1.441,1.441,0,0,1-.023.285,1,1,0,0,1-.062.2.289.289,0,0,1-.1.111.275.275,0,0,1-.14.037H199.2v3.646h4.127a.245.245,0,0,1,.139.04.375.375,0,0,1,.1.114.571.571,0,0,1,.061.2,2.073,2.073,0,0,1,.019.3,1.76,1.76,0,0,1-.019.279.557.557,0,0,1-.061.191.283.283,0,0,1-.1.1.3.3,0,0,1-.139.031H199.2v4.161h4.875a.271.271,0,0,1,.139.037.351.351,0,0,1,.111.11.665.665,0,0,1,.065.2,2.022,2.022,0,0,1,.019.3Zm13.038.408a.265.265,0,0,1-.029.126.215.215,0,0,1-.123.092,1.276,1.276,0,0,1-.265.053c-.114.012-.265.018-.453.018a3.735,3.735,0,0,1-.406-.018.958.958,0,0,1-.252-.059.356.356,0,0,1-.146-.114.713.713,0,0,1-.091-.177l-1.128-2.747c-.132-.312-.271-.6-.414-.859a2.793,2.793,0,0,0-.509-.675,2.1,2.1,0,0,0-.694-.441,2.627,2.627,0,0,0-.958-.157h-1.091v4.959a.191.191,0,0,1-.043.126.3.3,0,0,1-.133.086,1.39,1.39,0,0,1-.246.055,3.553,3.553,0,0,1-.79,0,1.463,1.463,0,0,1-.249-.055.255.255,0,0,1-.133-.086.2.2,0,0,1-.039-.126V105.6a.57.57,0,0,1,.194-.491.7.7,0,0,1,.414-.139h2.611c.311,0,.567.007.774.022s.389.034.554.049a5.076,5.076,0,0,1,1.26.368,2.99,2.99,0,0,1,.913.638,2.5,2.5,0,0,1,.557.887,3.4,3.4,0,0,1,.02,2.148,2.584,2.584,0,0,1-.48.816,3.205,3.205,0,0,1-.752.617,4.949,4.949,0,0,1-.978.439,2.4,2.4,0,0,1,.551.319,2.811,2.811,0,0,1,.46.463,4.326,4.326,0,0,1,.4.623c.126.232.253.5.379.791l1.1,2.565a4.743,4.743,0,0,1,.168.455.71.71,0,0,1,.04.2Zm-2.459-8.181a2,2,0,0,0-.324-1.156,1.824,1.824,0,0,0-1.082-.678,3.236,3.236,0,0,0-.534-.089c-.2-.019-.46-.028-.784-.028h-1.376v3.922h1.593a3.761,3.761,0,0,0,1.117-.148,2.3,2.3,0,0,0,.781-.414,1.641,1.641,0,0,0,.463-.625,2.072,2.072,0,0,0,.146-.783ZM226.7,116.34a.415.415,0,0,1-.107.163.4.4,0,0,1-.185.1,1.328,1.328,0,0,1-.3.053c-.123.009-.279.013-.469.013-.14,0-.259,0-.363,0a2.047,2.047,0,0,1-.272-.024,1.988,1.988,0,0,1-.195-.04.475.475,0,0,1-.136-.059.28.28,0,0,1-.09-.086.672.672,0,0,1-.062-.12L220.5,105.521a1.1,1.1,0,0,1-.078-.32.208.208,0,0,1,.078-.184.6.6,0,0,1,.276-.08c.125-.013.3-.018.515-.018.174,0,.317,0,.421.012a.827.827,0,0,1,.243.052.313.313,0,0,1,.127.092.732.732,0,0,1,.08.151l3.522,9.794h.019l3.427-9.776a.543.543,0,0,1,.065-.163.248.248,0,0,1,.133-.1.987.987,0,0,1,.265-.052c.114-.009.266-.012.457-.012a3.531,3.531,0,0,1,.463.022.4.4,0,0,1,.233.086.214.214,0,0,1,.049.184,1.359,1.359,0,0,1-.092.319l-4,10.81Zm9.892.037a.205.205,0,0,1-.039.126.255.255,0,0,1-.133.086,1.445,1.445,0,0,1-.25.055,3.493,3.493,0,0,1-.784,0,1.5,1.5,0,0,1-.256-.055A.249.249,0,0,1,235,116.5a.2.2,0,0,1-.039-.126v-11.17a.184.184,0,0,1,.042-.125.292.292,0,0,1,.142-.086,1.635,1.635,0,0,1,.256-.055,2.525,2.525,0,0,1,.375-.022,2.7,2.7,0,0,1,.4.022,1.387,1.387,0,0,1,.25.055.251.251,0,0,1,.133.086.2.2,0,0,1,.039.125v11.17Zm10.831.893a4.483,4.483,0,0,1,.295.669,1.589,1.589,0,0,1,.087.5,1.378,1.378,0,0,1-.133.611,1.24,1.24,0,0,1-.376.455,1.753,1.753,0,0,1-.583.285,2.786,2.786,0,0,1-.764.1,4.505,4.505,0,0,1-.628-.04c-.194-.027-.366-.055-.512-.086a1.361,1.361,0,0,1-.291-.083.263.263,0,0,1-.111-.089.372.372,0,0,1-.048-.137,1.236,1.236,0,0,1-.013-.218.754.754,0,0,1,.062-.374.226.226,0,0,1,.2-.1h1.163a.832.832,0,0,0,.48-.12.424.424,0,0,0,.171-.365,1.065,1.065,0,0,0-.054-.292,3.873,3.873,0,0,0-.152-.371l-.434-.914a5.381,5.381,0,0,1-1.649-.439,4.352,4.352,0,0,1-1.428-1.049,4.872,4.872,0,0,1-1.008-1.78,8.637,8.637,0,0,1,.029-5.075,5.479,5.479,0,0,1,1.107-1.918,4.71,4.71,0,0,1,1.707-1.2,5.639,5.639,0,0,1,2.2-.414,5.7,5.7,0,0,1,1.036.092,7.266,7.266,0,0,1,.933.237,4.3,4.3,0,0,1,.761.331,2.457,2.457,0,0,1,.461.306.932.932,0,0,1,.168.184.529.529,0,0,1,.062.147,1.4,1.4,0,0,1,.039.2,2.384,2.384,0,0,1,.013.279,1.991,1.991,0,0,1-.02.307,1.021,1.021,0,0,1-.055.216.364.364,0,0,1-.09.125.206.206,0,0,1-.13.04.713.713,0,0,1-.369-.175,6.4,6.4,0,0,0-.615-.387,4.949,4.949,0,0,0-.914-.386,4.17,4.17,0,0,0-1.286-.175,3.521,3.521,0,0,0-1.489.309,3.123,3.123,0,0,0-1.147.911,4.431,4.431,0,0,0-.735,1.469,7.663,7.663,0,0,0-.01,3.94,3.991,3.991,0,0,0,.722,1.42,2.991,2.991,0,0,0,1.153.862,3.931,3.931,0,0,0,1.549.292,4.33,4.33,0,0,0,1.247-.166,4.932,4.932,0,0,0,.952-.383,7.062,7.062,0,0,0,.642-.383.766.766,0,0,1,.389-.172.231.231,0,0,1,.114.028.175.175,0,0,1,.074.1.873.873,0,0,1,.045.212,3.164,3.164,0,0,1,.013.34c0,.1,0,.178-.009.252a.906.906,0,0,1-.032.188.62.62,0,0,1-.062.144,1.047,1.047,0,0,1-.132.154,3.5,3.5,0,0,1-.4.276,5.012,5.012,0,0,1-.738.356,5.667,5.667,0,0,1-.878.273,5.95,5.95,0,0,1-.839.126l.259.549Zm17.3-6.612a8.6,8.6,0,0,1-.35,2.544,5.3,5.3,0,0,1-1.049,1.927,4.623,4.623,0,0,1-1.753,1.222,6.523,6.523,0,0,1-2.459.426,6.61,6.61,0,0,1-2.393-.389,4.217,4.217,0,0,1-1.672-1.139,4.727,4.727,0,0,1-.981-1.851,9,9,0,0,1-.324-2.54,8.369,8.369,0,0,1,.35-2.5,5.112,5.112,0,0,1,1.056-1.909,4.684,4.684,0,0,1,1.755-1.212,6.487,6.487,0,0,1,2.459-.427,6.559,6.559,0,0,1,2.361.387,4.26,4.26,0,0,1,1.674,1.126,4.661,4.661,0,0,1,1,1.835,8.757,8.757,0,0,1,.328,2.5Zm-1.73.108a8.612,8.612,0,0,0-.184-1.835,4.1,4.1,0,0,0-.616-1.473,2.941,2.941,0,0,0-1.15-.973,4.071,4.071,0,0,0-1.781-.35,3.8,3.8,0,0,0-1.782.378,3.294,3.294,0,0,0-1.169,1,4.044,4.044,0,0,0-.645,1.47,7.753,7.753,0,0,0-.194,1.761,9.24,9.24,0,0,0,.181,1.884,4.089,4.089,0,0,0,.606,1.488,2.85,2.85,0,0,0,1.141.966,4.113,4.113,0,0,0,1.794.347,3.876,3.876,0,0,0,1.8-.378,3.178,3.178,0,0,0,1.175-1.018,4.218,4.218,0,0,0,.635-1.485,8.09,8.09,0,0,0,.188-1.785Zm13.121,2.58a3.1,3.1,0,0,1-1.2,2.538,3.936,3.936,0,0,1-1.328.668,5.8,5.8,0,0,1-1.649.224,6.3,6.3,0,0,1-1.143-.1,6.861,6.861,0,0,1-.942-.245,4.718,4.718,0,0,1-.694-.3,1.866,1.866,0,0,1-.389-.263.639.639,0,0,1-.162-.273,1.48,1.48,0,0,1-.052-.441,2.137,2.137,0,0,1,.021-.328.824.824,0,0,1,.054-.208.236.236,0,0,1,.1-.114.262.262,0,0,1,.132-.03.817.817,0,0,1,.375.152,5.539,5.539,0,0,0,.623.332,6.565,6.565,0,0,0,.917.334,4.438,4.438,0,0,0,1.238.157,3.361,3.361,0,0,0,.974-.136,2.269,2.269,0,0,0,.758-.38,1.648,1.648,0,0,0,.49-.6,1.906,1.906,0,0,0,.171-.816,1.456,1.456,0,0,0-.237-.844,2.338,2.338,0,0,0-.625-.617,5.975,5.975,0,0,0-.888-.485c-.333-.147-.673-.295-1.019-.448a11.1,11.1,0,0,1-1.014-.51,4.24,4.24,0,0,1-.885-.653,3,3,0,0,1-.628-.887,2.783,2.783,0,0,1-.243-1.215,2.937,2.937,0,0,1,.279-1.3,2.748,2.748,0,0,1,.778-.955,3.576,3.576,0,0,1,1.185-.589,5.214,5.214,0,0,1,1.483-.2,5.015,5.015,0,0,1,.82.067,5.811,5.811,0,0,1,.777.182,4.562,4.562,0,0,1,.651.251,1.721,1.721,0,0,1,.373.224.681.681,0,0,1,.119.135.52.52,0,0,1,.046.126,1.2,1.2,0,0,1,.029.187c.007.07.01.163.01.279a2.454,2.454,0,0,1-.013.288,1.021,1.021,0,0,1-.045.212.26.26,0,0,1-.078.126.188.188,0,0,1-.12.04.8.8,0,0,1-.327-.126c-.149-.086-.331-.177-.547-.285a4.822,4.822,0,0,0-.765-.284,3.377,3.377,0,0,0-.991-.133,2.781,2.781,0,0,0-.891.129,1.9,1.9,0,0,0-.628.347,1.436,1.436,0,0,0-.37.509,1.662,1.662,0,0,0-.122.629,1.444,1.444,0,0,0,.236.834,2.39,2.39,0,0,0,.631.62,5.737,5.737,0,0,0,.9.493c.334.15.677.3,1.026.455s.69.319,1.024.5a4.259,4.259,0,0,1,.9.647,2.942,2.942,0,0,1,.636.881,2.759,2.759,0,0,1,.242,1.2Zm19.756-7.708a2.015,2.015,0,0,1-.019.294.612.612,0,0,1-.065.2.313.313,0,0,1-.11.111.247.247,0,0,1-.13.037h-4.5v3.958h4.25a.281.281,0,0,1,.129.031.288.288,0,0,1,.111.1.568.568,0,0,1,.064.193,2.086,2.086,0,0,1,.019.31,1.926,1.926,0,0,1-.019.295.627.627,0,0,1-.064.2.4.4,0,0,1-.111.117.233.233,0,0,1-.129.04h-4.25v4.848a.209.209,0,0,1-.04.122.242.242,0,0,1-.132.089,1.455,1.455,0,0,1-.246.055,3.521,3.521,0,0,1-.787,0,1.463,1.463,0,0,1-.256-.055.247.247,0,0,1-.133-.089.214.214,0,0,1-.039-.122V105.6a.567.567,0,0,1,.194-.491.7.7,0,0,1,.415-.139h5.518a.248.248,0,0,1,.13.037.284.284,0,0,1,.11.117.626.626,0,0,1,.065.208,2.147,2.147,0,0,1,.019.3Zm6.307,10.739a.2.2,0,0,1-.039.126.25.25,0,0,1-.133.086,1.449,1.449,0,0,1-.249.055,2.833,2.833,0,0,1-.4.022,2.793,2.793,0,0,1-.389-.022,1.463,1.463,0,0,1-.256-.055.25.25,0,0,1-.133-.086.2.2,0,0,1-.039-.126v-11.17a.184.184,0,0,1,.042-.125.3.3,0,0,1,.143-.086,1.636,1.636,0,0,1,.256-.055,2.517,2.517,0,0,1,.375-.022,2.716,2.716,0,0,1,.4.022A1.391,1.391,0,0,1,302,105a.246.246,0,0,1,.133.086.2.2,0,0,1,.039.125v11.17Zm14.751-.414a.672.672,0,0,1-.065.307.587.587,0,0,1-.165.205.644.644,0,0,1-.23.117.92.92,0,0,1-.256.037h-.54a1.752,1.752,0,0,1-.447-.049,1.079,1.079,0,0,1-.363-.177,1.88,1.88,0,0,1-.343-.35,4.72,4.72,0,0,1-.366-.574l-3.751-6.619q-.3-.51-.592-1.073c-.2-.375-.386-.74-.558-1.093h-.019q.019.645.029,1.323c.007.447.01.9.01,1.337v7.024a.22.22,0,0,1-.039.122.291.291,0,0,1-.136.089,1.527,1.527,0,0,1-.25.055,2.8,2.8,0,0,1-.4.022,2.831,2.831,0,0,1-.4-.022,1.289,1.289,0,0,1-.243-.055.278.278,0,0,1-.132-.089.214.214,0,0,1-.039-.122V105.639a.58.58,0,0,1,.216-.512.8.8,0,0,1,.47-.154h.8a2.044,2.044,0,0,1,.473.046.979.979,0,0,1,.343.147,1.31,1.31,0,0,1,.295.288,3.762,3.762,0,0,1,.3.464l2.883,5.106c.178.313.35.617.515.914s.327.589.479.878.305.57.454.85.3.559.447.841h.01c-.013-.476-.023-.966-.026-1.479s0-1.007,0-1.48v-6.305a.189.189,0,0,1,.039-.117.355.355,0,0,1,.136-.1.98.98,0,0,1,.25-.059,3.788,3.788,0,0,1,.408-.018,3.5,3.5,0,0,1,.378.018.86.86,0,0,1,.25.059.336.336,0,0,1,.133.1.188.188,0,0,1,.038.117v10.718Zm14.648.1a1.116,1.116,0,0,1,.081.319.22.22,0,0,1-.071.184.509.509,0,0,1-.253.081c-.117.012-.272.018-.469.018s-.353,0-.47-.013a1.111,1.111,0,0,1-.265-.046.27.27,0,0,1-.133-.086.691.691,0,0,1-.081-.135l-1.052-2.832h-5.1l-1.007,2.8a.461.461,0,0,1-.075.141.363.363,0,0,1-.139.1.871.871,0,0,1-.256.059,4.186,4.186,0,0,1-.431.018,3.582,3.582,0,0,1-.45-.022.468.468,0,0,1-.246-.085.225.225,0,0,1-.068-.185,1.022,1.022,0,0,1,.081-.319l4.117-10.81a.472.472,0,0,1,.1-.163.388.388,0,0,1,.181-.1,1.349,1.349,0,0,1,.3-.052c.123-.009.278-.012.469-.012s.369,0,.5.012a1.484,1.484,0,0,1,.321.052.43.43,0,0,1,.191.1.444.444,0,0,1,.1.166l4.121,10.813Zm-5.286-9.542h-.01l-2.115,5.8h4.268l-2.143-5.8Zm18.822,9.441a.672.672,0,0,1-.065.307.587.587,0,0,1-.165.205.649.649,0,0,1-.229.117.929.929,0,0,1-.257.037h-.54a1.753,1.753,0,0,1-.447-.049,1.078,1.078,0,0,1-.363-.177,1.881,1.881,0,0,1-.343-.35,4.644,4.644,0,0,1-.366-.574l-3.75-6.619q-.3-.51-.593-1.073c-.2-.375-.386-.74-.556-1.093h-.02q.019.645.028,1.323c.007.447.01.9.01,1.337v7.024a.214.214,0,0,1-.039.122.29.29,0,0,1-.136.089,1.512,1.512,0,0,1-.249.055,2.788,2.788,0,0,1-.4.022,2.821,2.821,0,0,1-.4-.022,1.28,1.28,0,0,1-.243-.055.281.281,0,0,1-.133-.089.221.221,0,0,1-.04-.122V105.639a.577.577,0,0,1,.218-.512.792.792,0,0,1,.469-.154h.8a2.037,2.037,0,0,1,.472.046.981.981,0,0,1,.344.147,1.308,1.308,0,0,1,.295.288,3.7,3.7,0,0,1,.3.464l2.884,5.106c.177.313.35.617.515.914s.327.589.48.878l.453.85c.152.276.3.559.447.841h.01c-.013-.476-.022-.966-.026-1.479s0-1.007,0-1.48v-6.305a.185.185,0,0,1,.04-.117.343.343,0,0,1,.136-.1.968.968,0,0,1,.249-.059,3.778,3.778,0,0,1,.408-.018,3.518,3.518,0,0,1,.378.018.842.842,0,0,1,.249.059.334.334,0,0,1,.133.1.188.188,0,0,1,.038.117v10.718Z" transform="translate(-111.44 -38.985)" fill="#fff"/>
  <path id="Caminho_2539" data-name="Caminho 2539" d="M418.556,114.971c0,.1,0,.178-.01.252a.951.951,0,0,1-.032.187.728.728,0,0,1-.061.144.966.966,0,0,1-.133.15,2.778,2.778,0,0,1-.4.276,4.988,4.988,0,0,1-.758.359,6.421,6.421,0,0,1-1.033.294,6.127,6.127,0,0,1-1.28.123,5.875,5.875,0,0,1-2.161-.378,4.327,4.327,0,0,1-1.642-1.117A4.993,4.993,0,0,1,410,113.443a8.674,8.674,0,0,1,.03-5.082,5.489,5.489,0,0,1,1.108-1.92,4.7,4.7,0,0,1,1.707-1.2,5.636,5.636,0,0,1,2.2-.414,5.713,5.713,0,0,1,1.037.092,7.232,7.232,0,0,1,.932.237,4.286,4.286,0,0,1,.762.331,2.509,2.509,0,0,1,.46.306.955.955,0,0,1,.168.184.551.551,0,0,1,.062.147,1.387,1.387,0,0,1,.039.2,2.354,2.354,0,0,1,.013.279,1.96,1.96,0,0,1-.02.307.822.822,0,0,1-.059.216.3.3,0,0,1-.09.125.192.192,0,0,1-.126.04.739.739,0,0,1-.376-.175,6.044,6.044,0,0,0-.615-.387,5.109,5.109,0,0,0-.917-.386,4.249,4.249,0,0,0-1.295-.175,3.544,3.544,0,0,0-1.5.309,3.134,3.134,0,0,0-1.153.914,4.415,4.415,0,0,0-.742,1.473,7.694,7.694,0,0,0-.009,3.946,3.972,3.972,0,0,0,.725,1.424,3.028,3.028,0,0,0,1.159.865,3.981,3.981,0,0,0,1.558.292,4.386,4.386,0,0,0,1.286-.172,5.074,5.074,0,0,0,.933-.381,7.266,7.266,0,0,0,.635-.381.806.806,0,0,1,.392-.172.227.227,0,0,1,.117.028.186.186,0,0,1,.074.1.834.834,0,0,1,.045.212,3.131,3.131,0,0,1,.013.34Zm11.2,1a1.785,1.785,0,0,1-.019.286.657.657,0,0,1-.065.2.3.3,0,0,1-.11.117.26.26,0,0,1-.138.037h-5.9a.7.7,0,0,1-.415-.138.567.567,0,0,1-.195-.491V105.6a.567.567,0,0,1,.195-.491.7.7,0,0,1,.415-.139h5.829a.264.264,0,0,1,.139.037.25.25,0,0,1,.1.117,1.145,1.145,0,0,1,.062.2,1.645,1.645,0,0,1,.022.3,1.552,1.552,0,0,1-.022.285,1.039,1.039,0,0,1-.062.2.285.285,0,0,1-.1.111.27.27,0,0,1-.139.037h-4.806v3.646h4.126a.245.245,0,0,1,.14.04.355.355,0,0,1,.1.114.541.541,0,0,1,.062.2,1.955,1.955,0,0,1,.019.3,1.663,1.663,0,0,1-.019.279.527.527,0,0,1-.062.191.271.271,0,0,1-.1.1.3.3,0,0,1-.14.031h-4.126v4.161h4.875a.268.268,0,0,1,.138.037.333.333,0,0,1,.11.11.62.62,0,0,1,.065.2,1.915,1.915,0,0,1,.019.3Zm6.479.408a.2.2,0,0,1-.039.126.252.252,0,0,1-.133.086,1.438,1.438,0,0,1-.249.055,2.855,2.855,0,0,1-.4.022,2.79,2.79,0,0,1-.388-.022,1.481,1.481,0,0,1-.256-.055.244.244,0,0,1-.132-.086.2.2,0,0,1-.04-.126v-11.17a.181.181,0,0,1,.042-.125.293.293,0,0,1,.143-.086,1.6,1.6,0,0,1,.255-.055,2.517,2.517,0,0,1,.375-.022,2.737,2.737,0,0,1,.4.022,1.381,1.381,0,0,1,.249.055.248.248,0,0,1,.133.086.2.2,0,0,1,.039.125v11.17Zm13.653,0a.264.264,0,0,1-.029.126.217.217,0,0,1-.123.092,1.287,1.287,0,0,1-.266.053c-.113.012-.266.018-.453.018a3.736,3.736,0,0,1-.406-.018.961.961,0,0,1-.252-.059.351.351,0,0,1-.146-.114.743.743,0,0,1-.092-.177l-1.127-2.747c-.132-.312-.271-.6-.414-.859a2.8,2.8,0,0,0-.509-.675,2.1,2.1,0,0,0-.694-.441,2.628,2.628,0,0,0-.958-.157h-1.091v4.959a.2.2,0,0,1-.042.126.3.3,0,0,1-.133.086,1.409,1.409,0,0,1-.247.055,3.553,3.553,0,0,1-.79,0,1.462,1.462,0,0,1-.25-.055.249.249,0,0,1-.132-.086.2.2,0,0,1-.039-.126V105.6a.568.568,0,0,1,.194-.491.705.705,0,0,1,.414-.139h2.611c.31,0,.567.007.774.022s.389.034.553.049a5.07,5.07,0,0,1,1.26.368,2.974,2.974,0,0,1,.913.638,2.5,2.5,0,0,1,.558.887,3.161,3.161,0,0,1,.184,1.1,3.1,3.1,0,0,1-.165,1.046,2.557,2.557,0,0,1-.479.816,3.193,3.193,0,0,1-.751.617,4.967,4.967,0,0,1-.978.439,2.417,2.417,0,0,1,.551.319,2.772,2.772,0,0,1,.459.463,4.267,4.267,0,0,1,.406.623c.126.232.253.5.379.791l1.1,2.565a4.8,4.8,0,0,1,.168.455.736.736,0,0,1,.04.2Zm-2.458-8.181a1.99,1.99,0,0,0-.325-1.156,1.819,1.819,0,0,0-1.081-.678,3.226,3.226,0,0,0-.534-.089c-.2-.019-.459-.028-.783-.028h-1.377v3.922h1.593a3.754,3.754,0,0,0,1.117-.148,2.288,2.288,0,0,0,.781-.414,1.646,1.646,0,0,0,.464-.625,2.072,2.072,0,0,0,.146-.783Zm17.106,2.462a8.6,8.6,0,0,1-.35,2.544,5.3,5.3,0,0,1-1.05,1.927,4.616,4.616,0,0,1-1.752,1.222,6.52,6.52,0,0,1-2.458.426,6.618,6.618,0,0,1-2.394-.389,4.223,4.223,0,0,1-1.672-1.139,4.729,4.729,0,0,1-.98-1.851,9,9,0,0,1-.325-2.54,8.393,8.393,0,0,1,.35-2.5,5.144,5.144,0,0,1,1.056-1.909,4.682,4.682,0,0,1,1.755-1.212,6.486,6.486,0,0,1,2.459-.427,6.551,6.551,0,0,1,2.36.387,4.259,4.259,0,0,1,1.675,1.126,4.656,4.656,0,0,1,1,1.835,8.726,8.726,0,0,1,.328,2.5Zm-1.73.108a8.6,8.6,0,0,0-.184-1.835,4.085,4.085,0,0,0-.616-1.473,2.944,2.944,0,0,0-1.149-.973,4.075,4.075,0,0,0-1.782-.35,3.8,3.8,0,0,0-1.782.378,3.3,3.3,0,0,0-1.169,1,4.06,4.06,0,0,0-.645,1.47,7.793,7.793,0,0,0-.194,1.761,9.188,9.188,0,0,0,.181,1.884,4.076,4.076,0,0,0,.606,1.488,2.856,2.856,0,0,0,1.139.966,4.124,4.124,0,0,0,1.8.347,3.874,3.874,0,0,0,1.8-.378,3.18,3.18,0,0,0,1.176-1.018,4.229,4.229,0,0,0,.635-1.485,8.133,8.133,0,0,0,.187-1.785Zm13.122,2.58a3.1,3.1,0,0,1-1.2,2.538,3.939,3.939,0,0,1-1.328.668,5.787,5.787,0,0,1-1.648.224,6.3,6.3,0,0,1-1.143-.1,6.867,6.867,0,0,1-.943-.245,4.751,4.751,0,0,1-.694-.3,1.872,1.872,0,0,1-.388-.263.635.635,0,0,1-.163-.273,1.5,1.5,0,0,1-.052-.441,2.244,2.244,0,0,1,.02-.328.812.812,0,0,1,.056-.208.235.235,0,0,1,.1-.114.264.264,0,0,1,.132-.03.819.819,0,0,1,.376.152,5.419,5.419,0,0,0,.622.332,6.561,6.561,0,0,0,.916.334,4.441,4.441,0,0,0,1.238.157,3.366,3.366,0,0,0,.975-.136,2.263,2.263,0,0,0,.757-.38,1.632,1.632,0,0,0,.49-.6,1.9,1.9,0,0,0,.171-.816,1.464,1.464,0,0,0-.237-.844,2.361,2.361,0,0,0-.625-.617,5.971,5.971,0,0,0-.888-.485l-1.02-.448c-.347-.154-.686-.323-1.015-.51a4.248,4.248,0,0,1-.884-.653,2.985,2.985,0,0,1-.628-.887,2.785,2.785,0,0,1-.243-1.215,2.938,2.938,0,0,1,.279-1.3,2.748,2.748,0,0,1,.777-.955,3.581,3.581,0,0,1,1.186-.589,5.206,5.206,0,0,1,1.483-.2,5.023,5.023,0,0,1,.82.067,5.836,5.836,0,0,1,.777.182,4.548,4.548,0,0,1,.65.251,1.729,1.729,0,0,1,.373.224.68.68,0,0,1,.12.135.557.557,0,0,1,.045.126,1.2,1.2,0,0,1,.029.187c.006.07.01.163.01.279a2.656,2.656,0,0,1-.013.288,1.076,1.076,0,0,1-.045.212.264.264,0,0,1-.078.126.187.187,0,0,1-.12.04.8.8,0,0,1-.327-.126c-.15-.086-.331-.177-.548-.285a4.782,4.782,0,0,0-.764-.284,3.383,3.383,0,0,0-.991-.133,2.778,2.778,0,0,0-.891.129,1.893,1.893,0,0,0-.628.347,1.42,1.42,0,0,0-.369.509,1.658,1.658,0,0,0-.123.629,1.448,1.448,0,0,0,.236.834,2.411,2.411,0,0,0,.631.62,5.725,5.725,0,0,0,.9.493c.334.15.677.3,1.027.455s.69.319,1.023.5a4.266,4.266,0,0,1,.9.647,2.932,2.932,0,0,1,.635.881,2.75,2.75,0,0,1,.243,1.2Z" transform="translate(-171.232 -38.985)" fill="#fff"/>
</svg>
